<?xml version="1.0" standalone="no"?>
<!DOCTYPE svg PUBLIC "-//W3C//DTD SVG 20010904//EN"
 "http://www.w3.org/TR/2001/REC-SVG-20010904/DTD/svg10.dtd">
<svg version="1.0" xmlns="http://www.w3.org/2000/svg"
 width="1216.000000pt" height="1216.000000pt" viewBox="0 0 1216.000000 1216.000000"
 preserveAspectRatio="xMidYMid meet">
<metadata>
Created by potrace 1.11, written by Peter Selinger 2001-2013
</metadata>
<g transform="translate(0.000000,1216.000000) scale(0.100000,-0.100000)"
fill="#000000" stroke="none">
<path d="M10726 9643 c-1 -1 -348 -5 -772 -8 -423 -3 -989 -8 -1259 -10 -554
-4 -1702 -13 -2515 -20 -300 -3 -858 -7 -1240 -10 -382 -3 -913 -8 -1180 -10
-267 -2 -533 -4 -591 -5 l-106 0 3 -162 c1 -90 5 -345 9 -568 3 -223 8 -520
10 -660 3 -140 7 -428 10 -640 3 -212 7 -522 10 -690 8 -483 15 -959 20 -1305
5 -323 11 -765 20 -1305 5 -298 11 -724 20 -1299 3 -173 6 -316 9 -318 2 -2
247 -6 543 -9 l540 -5 -3 73 c-1 40 -5 240 -9 443 -13 720 -18 972 -30 1560
-3 116 -7 341 -10 500 -3 160 -7 387 -10 505 -2 118 -7 348 -10 510 -3 162 -7
394 -10 515 -5 231 -12 615 -20 1020 -2 132 -7 362 -10 510 -16 726 -16 705 3
706 9 0 26 2 37 4 64 12 566 25 965 25 319 0 503 -7 670 -25 25 -3 68 -7 95
-10 28 -3 61 -7 75 -10 14 -2 45 -7 70 -10 69 -9 193 -34 320 -66 455 -113
734 -279 982 -587 137 -170 257 -428 316 -682 50 -212 59 -501 22 -710 -5 -30
-12 -73 -16 -95 -10 -68 -90 -299 -135 -392 -109 -223 -242 -377 -578 -669
-18 -16 -54 -48 -80 -71 -25 -24 -69 -62 -97 -85 -69 -57 -94 -96 -94 -142 0
-40 15 -72 295 -641 151 -306 299 -612 355 -730 21 -44 58 -123 83 -175 24
-52 57 -122 72 -155 179 -392 276 -618 412 -954 l78 -194 390 -3 c215 -2 669
-5 1010 -8 1892 -17 1955 -17 1956 -4 1 21 -2 445 -6 963 -3 264 -7 777 -10
1140 -3 363 -8 923 -10 1245 -3 322 -7 833 -10 1135 -10 1249 -22 2524 -24
2565 l-1 26 -281 -1 c-154 0 -282 -1 -283 -2z"/>
<path d="M1365 9555 c-183 -36 -344 -139 -420 -270 -33 -55 -73 -161 -81 -212
-3 -20 -8 -45 -10 -57 -17 -86 -26 -813 -11 -894 38 -205 165 -409 312 -504
234 -152 595 -85 805 149 135 151 186 366 184 773 -2 345 -20 476 -87 625
-138 308 -389 449 -692 390z"/>
<path d="M1684 7237 c-16 -9 -15 -114 1 -594 3 -68 1 -123 -3 -123 -8 0 -21
20 -60 89 -43 79 -248 443 -289 516 -61 106 -56 104 -276 108 -130 2 -193 -1
-204 -8 -20 -14 -20 193 0 -1932 0 -61 -16 -55 157 -53 58 1 149 2 203 3 l98
0 -7 456 c-6 471 -6 502 0 508 5 5 54 -97 111 -232 26 -61 53 -123 61 -140 7
-16 63 -147 124 -290 64 -151 120 -268 133 -280 21 -19 33 -20 199 -15 97 3
180 8 183 12 9 9 9 14 1 493 -3 209 -8 558 -12 775 -3 217 -6 463 -8 545 -1
83 -5 156 -10 163 -5 9 -54 12 -197 10 -105 -2 -197 -7 -205 -11z"/>
<path d="M5406 4678 c2 -309 6 -633 8 -718 2 -85 7 -265 11 -400 4 -135 8
-301 10 -370 9 -336 17 -575 20 -578 2 -2 207 -5 457 -7 249 -2 532 -4 628 -5
96 -1 182 -1 191 -1 13 1 -12 59 -103 244 -67 133 -149 301 -183 372 -124 257
-194 403 -274 568 -44 93 -81 170 -81 172 0 2 -49 105 -110 230 -60 125 -110
228 -110 230 0 1 -33 72 -74 156 -40 85 -85 179 -99 209 -14 30 -51 109 -82
175 -31 66 -73 154 -92 195 -19 41 -37 77 -39 79 -2 2 -21 6 -43 8 l-40 5 5
-564z"/>
<path d="M1069 4908 c-40 -8 -49 -22 -49 -78 0 -25 -2 -526 -5 -1114 -3 -775
-1 -1073 7 -1083 7 -8 23 -11 42 -8 17 2 126 7 241 10 312 8 529 15 629 20
104 6 115 14 116 90 1 28 3 118 5 201 4 137 3 153 -14 168 -16 14 -47 16 -261
13 -295 -4 -280 -11 -281 121 0 48 -2 138 -3 200 -1 69 2 116 9 120 9 6 129
10 378 11 l107 1 -1 230 -1 229 -221 0 c-122 -1 -226 -1 -232 0 -15 2 -13 427
2 442 8 8 81 12 247 13 129 1 238 4 242 8 3 4 6 91 6 194 -1 142 -4 191 -14
201 -11 10 -105 14 -465 16 -249 1 -466 -1 -484 -5z"/>
</g>
</svg>
