<svg width="1551" height="1100" viewBox="0 0 1551 1100" fill="none" xmlns="http://www.w3.org/2000/svg">
<path d="M341.449 288.433L340.234 179.043L177.998 179.508L180.371 291.928L341.449 288.433Z" fill="#E8E8E8"/>
<path d="M179.577 303.013L339.297 303.684L343.401 443.774L180.518 441.184L179.577 303.013Z" fill="#E8E8E8"/>
<path d="M30.0851 558.279L28.3188 459.704L178.502 465.423L179.351 554.788L30.0851 558.279Z" fill="#E8E8E8"/>
<path d="M193.79 556.206L190.802 464.879L341.433 469.037C341.433 469.037 342.215 475.169 341.905 479.808C341.596 484.447 328.331 556.448 328.331 556.448L193.79 556.206Z" fill="#E8E8E8"/>
<path d="M344.798 557.266C344.798 557.266 363.679 484.503 363.52 480.912C363.361 477.322 361.532 470.725 361.532 470.725C361.532 470.725 394.351 469.792 399.055 471.643C403.758 473.489 408.596 478.414 416.84 479.081C425.083 479.745 522.923 474.411 522.923 474.411L524.459 556.039L344.798 557.266Z" fill="#E8E8E8"/>
<path d="M535.735 555.535L536.227 473.307L623.509 473.056L623.061 556.317L535.735 555.535Z" fill="#E8E8E8"/>
<path d="M189.123 741.897C189.123 741.897 192.322 639.51 191.933 618.973C191.544 598.436 191.552 575.317 191.552 575.317L523.383 578.172L523.312 740.027L189.123 741.897Z" fill="#E8E8E8"/>
<path d="M535.147 577.144L536.187 577.168L625.101 579.348L626.01 740.13L537.259 741.981L535.147 577.144Z" fill="#E8E8E8"/>
<path d="M361.854 442.96L362.048 178.853L426.175 177.57L522.725 177.943L525.043 347.399C525.043 347.399 503.098 350.421 490.005 367.952C476.911 385.483 459.221 426.855 440.972 432.284C422.722 437.713 400.599 436.633 396.213 441.963C391.823 447.293 361.854 442.96 361.854 442.96Z" fill="#E8E8E8"/>
<path d="M461.455 442.686C461.455 442.686 473.37 433.428 482.967 418.101C492.564 402.779 499.617 388.08 507.547 381.567C515.477 375.053 522.982 370.609 522.982 370.609L523.756 446.617C523.756 446.617 481.197 447.98 474.537 448.27C467.877 448.56 461.455 442.686 461.455 442.686Z" fill="#E8E8E8"/>
<path d="M625.41 446.256L535.636 448.155L536.08 364.898C536.08 364.898 620.084 360.172 623.716 361.038C627.347 361.907 625.41 446.256 625.41 446.256Z" fill="#E8E8E8"/>
<path d="M636.262 447.833L637.087 361.479L797.832 362.106L799.01 447.344L636.262 447.833Z" fill="#E8E8E8"/>
<path d="M635.92 475.082L798.582 472.54L800.205 556.221L636.5 558.291L635.92 475.082Z" fill="#E8E8E8"/>
<path d="M800.614 740.662L637.353 741.171L637.845 577.243L799.125 578.363L800.614 740.662Z" fill="#E8E8E8"/>
<path d="M824.507 922.013L822.772 754.074L977.857 754.436L977.964 920.393L824.507 922.013Z" fill="#E8E8E8"/>
<path d="M797.887 340.008L639.77 340.806L639.306 178.464L795.327 176.732L797.887 340.008Z" fill="#E8E8E8"/>
<path d="M978.274 740.547L821.673 740.762L821.229 578.931L978.833 578.157L978.274 740.547Z" fill="#E8E8E8"/>
<path d="M979.445 557.063L820.304 557.905L819.312 360.132L977.516 361.387L979.445 557.063Z" fill="#E8E8E8"/>
<path d="M998.944 556.718L1000.71 363.448L1158.34 363.186L1159.26 559.423L998.944 556.718Z" fill="#E8E8E8"/>
<path d="M1157.89 738.287L999.865 741.135L999.937 579.281L1157.03 578.53L1157.89 738.287Z" fill="#E8E8E8"/>
<path d="M1178.04 577.604L1268.42 577.736L1268.86 739.566L1177.97 739.459L1178.04 577.604Z" fill="#E8E8E8"/>
<path d="M1282.69 738.958L1281.76 577.66L1371.65 578.327L1372 738.109L1282.69 738.958Z" fill="#E8E8E8"/>
<path d="M1280.89 873.143L1281.28 753.407L1370.09 753.093L1371.6 869.147L1280.89 873.143Z" fill="#E8E8E8"/>
<path d="M1178.57 753.304L1266.92 754.039L1267.99 918.411L1181.2 918.121L1178.57 753.304Z" fill="#E8E8E8"/>
<path d="M1282.99 920.834L1281.59 889.037L1371.34 886.626L1371.81 920.52L1282.99 920.834Z" fill="#E8E8E8"/>
<path d="M1268.2 1098.24L1181.99 1099.46L1179.36 934.647L1266.6 933.372L1268.2 1098.24Z" fill="#E8E8E8"/>
<path d="M1282.1 1099.17L1280.43 932.764L1369.32 933.988L1371.39 1097.8L1282.1 1099.17Z" fill="#E8E8E8"/>
<path d="M1550.52 1096.08L1391.51 1100L1390.24 931.013L1547.93 932.288L1550.52 1096.08Z" fill="#E8E8E8"/>
<path d="M1548.61 737.525L1391.01 738.299L1391.7 578.987L1549.35 579.237L1548.61 737.525Z" fill="#E8E8E8"/>
<path d="M1550.45 557.607L1392.83 557.87L1390.79 464.962L1549.96 464.633L1550.45 557.607Z" fill="#E8E8E8"/>
<path d="M1548.35 918.395L1392.8 919.082L1391.12 752.68L1549.78 752.374L1548.35 918.395Z" fill="#E8E8E8"/>
<path d="M1370.68 556.277L1178.67 557.024L1177.34 363.377L1369.77 360.553L1370.68 556.277Z" fill="#E8E8E8"/>
<path d="M1551 453.282L1391.44 456.197L1388.83 361.772L1549.99 360.327L1551 453.282Z" fill="#E8E8E8"/>
<path d="M163.304 166.54L8.73179 166.151L0 2.63261L162.169 0.626953L163.304 166.54Z" fill="#E8E8E8"/>
<path d="M178.168 165.885L176.029 0.532193L339.805 0L340.96 166.426L178.168 165.885Z" fill="#E8E8E8"/>
<path d="M33.9192 435.31L166.011 438.225L162.308 178.916L9.31934 179.488L33.9192 435.31Z" fill="#E8E8E8"/>
<path d="M176.664 738.851C176.664 738.851 180.526 628.211 179.986 615.903C179.446 603.595 178.716 575.369 178.716 575.369L28.3545 577.366L48.8742 740.368L176.664 738.851Z" fill="#E8E8E8"/>
<path d="M999.182 924.082L997.912 755.095L1156.58 755.302L1160.75 920.051L999.182 924.082Z" fill="#E8E8E8"/>
</svg>
