<svg xmlns="http://www.w3.org/2000/svg" viewBox="0 0 3907.79 2769.67">
  <defs>
    <style>
      .cls-1 {
        fill: #d6d0d0;
      }
    </style>
  </defs>
  <title>Asset 1</title>
  <g id="Layer_2" data-name="Layer 2">
    <g id="Layer_1-2" data-name="Layer 1">
      <g>
        <polygon class="cls-1" points="860.29 726.24 857.23 450.81 448.46 451.98 454.45 735.04 860.29 726.24"/>
        <polygon class="cls-1" points="452.45 762.95 854.87 764.64 865.21 1117.37 454.82 1110.85 452.45 762.95"/>
        <polygon class="cls-1" points="75.8 1405.68 71.34 1157.48 449.74 1171.88 451.88 1396.89 75.8 1405.68"/>
        <path class="cls-1" d="M488.26,1400.46l-7.53-230L860.25,1181s2,15.44,1.19,27.12-34.2,193-34.2,193Z"/>
        <path class="cls-1" d="M868.73,1403.13s47.57-183.22,47.17-192.26-5-25.65-5-25.65,82.7-2.34,94.55,2.31,24,17,44.81,18.73,267.28-11.77,267.28-11.77L1321.4,1400Z"/>
        <polygon class="cls-1" points="1349.8 1398.77 1351.04 1191.72 1570.95 1191.1 1569.82 1400.73 1349.8 1398.77"/>
        <path class="cls-1" d="M476.5,1868s8.06-257.8,7.08-309.51-1-109.92-1-109.92l836.06,7.19-.18,407.53Z"/>
        <polygon class="cls-1" points="1348.32 1453.18 1350.94 1453.24 1574.96 1458.73 1577.25 1863.56 1353.64 1868.22 1348.32 1453.18"/>
        <path class="cls-1" d="M911.7,1115.32l.49-665,161.57-3.23L1317,448l5.84,426.67s-55.29,7.61-88.28,51.75-77.57,148.31-123.54,162-101.72,11-112.77,24.37S911.7,1115.32,911.7,1115.32Z"/>
        <path class="cls-1" d="M1162.65,1114.63s30-23.31,54.2-61.9,42-75.58,61.93-92a348.4,348.4,0,0,1,38.89-27.58l1.95,191.38s-107.22,3.43-124,4.16S1162.65,1114.63,1162.65,1114.63Z"/>
        <path class="cls-1" d="M1575.74,1123.62l-226.19,4.78,1.12-209.63s211.65-11.9,220.8-9.72S1575.74,1123.62,1575.74,1123.62Z"/>
        <polygon class="cls-1" points="1603.08 1127.59 1605.16 910.16 2010.16 911.74 2013.13 1126.37 1603.08 1127.59"/>
        <polygon class="cls-1" points="1602.22 1196.2 2012.05 1189.81 2016.14 1400.5 1603.68 1405.71 1602.22 1196.2"/>
        <polygon class="cls-1" points="2017.17 1864.9 1605.83 1866.18 1607.07 1453.43 2013.42 1456.25 2017.17 1864.9"/>
        <polygon class="cls-1" points="2077.37 2321.52 2073 1898.66 2463.74 1899.58 2464.01 2317.44 2077.37 2321.52"/>
        <polygon class="cls-1" points="2010.3 856.1 1611.92 858.11 1610.75 449.35 2003.85 444.99 2010.3 856.1"/>
        <polygon class="cls-1" points="2464.79 1864.61 2070.23 1865.15 2069.11 1457.68 2466.2 1455.73 2464.79 1864.61"/>
        <polygon class="cls-1" points="2467.74 1402.62 2066.78 1404.74 2064.28 906.77 2462.88 909.93 2467.74 1402.62"/>
        <polygon class="cls-1" points="2516.86 1401.75 2521.32 915.12 2918.47 914.46 2920.8 1408.56 2516.86 1401.75"/>
        <polygon class="cls-1" points="2917.34 1858.92 2519.19 1866.09 2519.36 1458.57 2915.16 1456.67 2917.34 1858.92"/>
        <polygon class="cls-1" points="2968.1 1454.34 3195.81 1454.67 3196.92 1862.14 2967.92 1861.87 2968.1 1454.34"/>
        <polygon class="cls-1" points="3231.78 1860.61 3229.43 1454.48 3455.91 1456.16 3456.8 1858.47 3231.78 1860.61"/>
        <polygon class="cls-1" points="3227.24 2198.47 3228.21 1896.99 3451.99 1896.2 3455.79 2188.41 3227.24 2198.47"/>
        <polygon class="cls-1" points="2969.45 1896.73 3192.05 1898.58 3194.74 2312.45 2976.07 2311.72 2969.45 1896.73"/>
        <polygon class="cls-1" points="3232.53 2318.55 3229.01 2238.49 3455.14 2232.42 3456.31 2317.76 3232.53 2318.55"/>
        <polygon class="cls-1" points="3195.26 2765.23 2978.05 2768.32 2971.44 2353.33 3191.23 2350.12 3195.26 2765.23"/>
        <polygon class="cls-1" points="3230.3 2767.57 3226.09 2348.59 3450.04 2351.67 3455.25 2764.14 3230.3 2767.57"/>
        <polygon class="cls-1" points="3906.57 2759.8 3505.95 2769.67 3502.75 2344.18 3900.06 2347.39 3906.57 2759.8"/>
        <polygon class="cls-1" points="3901.77 1857 3504.68 1858.95 3506.44 1457.82 3903.64 1458.45 3901.77 1857"/>
        <polygon class="cls-1" points="3906.41 1403.99 3509.27 1404.65 3504.15 1170.71 3905.17 1169.89 3906.41 1403.99"/>
        <polygon class="cls-1" points="3901.11 2312.41 3509.19 2314.14 3504.98 1895.16 3904.71 1894.39 3901.11 2312.41"/>
        <polygon class="cls-1" points="3453.47 1400.64 2969.7 1402.52 2966.35 914.94 3451.18 907.84 3453.47 1400.64"/>
        <polygon class="cls-1" points="3907.79 1141.31 3505.77 1148.65 3499.19 910.9 3905.25 907.26 3907.79 1141.31"/>
        <polygon class="cls-1" points="411.45 419.33 22 418.35 0 6.63 408.59 1.58 411.45 419.33"/>
        <polygon class="cls-1" points="448.9 417.68 443.51 1.34 856.15 0 859.06 419.04 448.9 417.68"/>
        <polygon class="cls-1" points="85.46 1096.06 418.27 1103.4 408.94 450.49 23.48 451.93 85.46 1096.06"/>
        <path class="cls-1" d="M445.11,1860.34s9.73-278.58,8.37-309.57-3.2-102.06-3.2-102.06l-378.83,5,51.69,410.42Z"/>
        <polygon class="cls-1" points="2517.47 2326.73 2514.27 1901.24 2914.05 1901.76 2924.54 2316.58 2517.47 2326.73"/>
      </g>
    </g>
  </g>
</svg>
