<svg id="Layer_1" data-name="Layer 1" xmlns="http://www.w3.org/2000/svg" viewBox="0 0 440.04 496.73">
  <defs>
    <style>
      .cls-1 {
        fill: #181717;
      }
    </style>
  </defs>
  <title>Artboard 1 copy</title>
  <g>
    <path class="cls-1" d="M220.15,24.91l-.32,15.15h.47c14.36.43,28.73.61,43.09.75,2.63,0,3.57.8,3.47,3.5-.23,5.86-.16,11.72-.21,17.26-7.79-.06-14.85,0-21.9-.25-2.87-.1-4,.57-3.87,3.66.18,6.18,0,12.38-.1,19.42l23.15.2c-.07,8-.13,15.07-.2,22.94-6.9-.06-13.62-.2-20.34-.16-4.82,0-4.6-.61-4.63,4.81,0,4.82.18,9.65.08,14.47-.05,2.59.81,3.56,3.51,3.52,7.08-.09,14.15.18,21.23.13,2.31,0,3.27.53,3.12,3.05,0,4.14-.23,13.57-.51,18.38l139.89,1.92,3.14-128.84Z"/>
    <g>
      <path class="cls-1" d="M195.54,37.19q-.85,53.52-1.57,107.05c0,2.23-.78,3.06-3.05,3-5.5-.22-11-.41-16.52-.31-2.5,0-3.63-1-4.48-3.13q-9-23-18.1-46c-1-2.46-2.16-4.84-3.25-7.25l-.74.2c-.29,18.44-.59,36.87-.89,55.52l-26.14-.42c-.06-1-.17-2-.15-2.89q1.14-53.89,2.26-107.78L96.4,34.43c.39.43.78.86,1.15,1.31a59.33,59.33,0,0,1,13.88,34.68c.6,9,.4,18,.61,30.2-1.07,7.16-1.38,17.72-4.36,27.47-6.15,20.17-25.75,31-43.47,30.92C49,158.92,38.6,151,31.48,138.68l7.15,76.18a25.24,25.24,0,0,1,3.12-.44,152.37,152.37,0,0,1,38.47,3.49c14.28,3.28,23.09,14.14,25.19,29,1.86,13.13-2.82,23.3-13,31.18-2.54,2-3,3.65-1.67,6.5,6,13.28,11.84,26.64,17.7,40a82.08,82.08,0,0,1,3.08,7.89q.12.36.21.69l5,.17c2.21-23.47,4.33-47,6.75-70.42,1.8-17.39,4.1-34.73,6-52.12.26-2.32,1.1-2.94,3.3-2.94q24.87,0,49.73-.2c2.17,0,3.08.58,3.37,2.92,3.21,25.56,6.69,51.08,9.79,76.65,2,16.28,3.44,32.62,5.12,48.93l6.8.23L209.2,37.57Z"/>
      <path class="cls-1" d="M168.91,71.23A6.57,6.57,0,0,0,171,73.74c0-1.08.05-2.16.05-3.23,0-11.34.11-22.67,0-34l-20.64-.57C156.68,47.66,162.77,59.45,168.91,71.23Z"/>
      <path class="cls-1" d="M39.82,32.86l-18.31-.51,2.56,27.3A42.55,42.55,0,0,1,39.82,32.86Z"/>
      <path class="cls-1" d="M166.66,293.16a3.71,3.71,0,0,0-2.55-2.48c-5.65-.22-11.32-.1-17.49-.09-1.38,14.4-2.77,28.86-4.19,43.6l29.32,1c-.67-5.39-1.36-10.85-2-16.32C168.72,310.29,167.82,301.71,166.66,293.16Z"/>
      <path class="cls-1" d="M84,332.24c-.3-.75-.63-1.62-1-2.64-4.72-12.32-9.72-24.52-14.61-36.78l-1.9.18q0,15.94.05,31.89c0,2.25.09,4.51.1,6.76Z"/>
    </g>
    <path class="cls-1" d="M254.87,289.14c.06,9.33-.11,9.34,9,9.43,10.52.12,21,.35,31.54.24,3.69,0,5.39,1,5.46,4.89.16,9.13.56,18.25.95,27.37l112.21,3.87L412.3,169.16l-158.06-.48C254.29,179.17,254.64,252.74,254.87,289.14Z"/>
    <g>
      <path class="cls-1" d="M165.59,400.81c.15-14.3.3-28.61.26-42.92L60,354.05l-.45,114.13L164.85,468Q165.21,434.42,165.59,400.81Z"/>
      <path class="cls-1" d="M220.06,359.86c-.08,5.26,0,10.5,0,15.53-8,0-15.35.05-22.66.05-4.79,0-4.79,0-4.79,4.83,0,6.29,0,12.58,0,19.78l24.72-.06c0,8.51,0,16.11.06,24.4-5.33,0-10.22.15-15.44.27-3.42.08-8.58-1.05-10.21.76-1.83,2.05-.9,6.67-1,10.18s.31,6.87.29,10.31c0,2.41,1,3.13,3.33,3.1,7.79-.11,15.59,0,23.39-.09,2.42,0,3.15.74,3.11,3.14-.09,5.19-.06,10.38,0,15.9l15.67,0,.06-107.48Z"/>
    </g>
    <g>
      <path class="cls-1" d="M378.5,441.14c-3.19.35-5.92.58-8.62,1-.41.07-.93,1.13-.94,1.74-.1,8.15-.18,16.3-.12,24.45l10.05-.05C378.74,459.14,378.62,450.26,378.5,441.14Z"/>
      <path class="cls-1" d="M417.78,364l-154.19-2.7c0,1,0,2,.05,3,.54,34.85,1,69.7,1.64,104.54l18.94-.08c-2-2.81-3-6.57-3.86-11.49a181.6,181.6,0,0,1-1.9-47.26,78.19,78.19,0,0,1,2.37-14.07c3.75-12.88,11.84-22.39,25.2-24.86,15.8-2.93,29,3.51,34.61,20.83.62,1.9.31,3.16-1.77,3.92-4.82,1.76-9.58,3.67-14.55,5.59-1.07-1.52-2.07-3-3.11-4.38-4.62-6.28-10.09-6.87-16-1.78A15.53,15.53,0,0,0,300,405.55c-2.93,14.4-.22,32.58,1.37,38.27,2.46,8.76,9.26,11.87,15.56,10.26,2.23-.56,3.67-1.75,3.36-4.36-.16-1.37-.06-2.77-.08-4.29-.49,0-4.8.12-5.2-.28-.81-.81-1-3.19-1.13-6.11-.4-7.48-.41-7.6,7-8.22,5.42-.46,10.86-.62,16.3-.73.74,0,2.16,1.06,2.15,1.61-.1,9.26.15,18.57-.81,27.74a15.7,15.7,0,0,1-3.68,9.06l18.08-.08c-.59-22.86-1.18-45.56-1.78-68.49,5-.07,10.08-.18,15.12-.12.39,0,1,1.2,1.09,1.88.3,4.25.46,8.52.68,12.79.2,3.92.41,7.83.62,12,3,0,5.79,0,8.59-.18.4,0,1-.93,1.05-1.45.06-2.29-.08-4.59-.13-6.89-.11-4.86-.23-9.71-.3-14.57,0-1.09.16-2.2.26-3.49,4.83-.06,9.06-.16,13.77-.11a2.76,2.76,0,0,1,1.47,1.7c.3,4.79.6,9.58.7,14.37.23,10.44.33,20.89.52,31.33q.18,10.53.47,21.06l5.27,0,18.13-88.34Z"/>
    </g>
  </g>
</svg>
